<svg width="100" height="100" viewBox="0 0 100 100" fill="none" xmlns="http://www.w3.org/2000/svg">
<path fill-rule="evenodd" clip-rule="evenodd" d="M72.6221 12.8613C72.8338 12.6697 75.112 12.6307 75.3483 12.8145C75.4194 12.87 75.8577 12.9078 76.322 12.8992C76.9411 12.8877 77.2053 12.9224 77.3121 13.0291C77.3928 13.1098 77.5511 13.1505 77.6666 13.1203C77.7814 13.0904 78.0208 13.1383 78.1986 13.2271C78.3765 13.3158 78.5726 13.3882 78.6352 13.3883C78.6974 13.3883 78.9059 13.54 79.098 13.7254C79.29 13.9107 79.5492 14.1164 79.6739 14.1822C79.8165 14.2575 79.9003 14.3951 79.9003 14.5531C79.9003 14.6913 79.97 14.8312 80.0551 14.8641C80.4611 15.0197 80.6844 16.2611 80.7677 18.8264C80.8283 20.6989 80.8572 21.2509 80.8996 21.3439C80.9831 21.5277 80.9715 21.7559 80.8724 21.8798C80.7285 22.0594 80.2025 22.1936 80.2025 22.0509C80.2025 21.9944 80.1546 21.9482 80.0958 21.9482C80.0372 21.9482 80.0137 21.9878 80.0434 22.0362C80.0889 22.1098 79.5673 22.7535 79.4617 22.7538C79.2876 22.7538 78.7905 22.5076 78.7816 22.4167C78.7605 22.2075 78.7324 22.1017 78.6484 21.9167C78.6005 21.8115 78.6111 21.6334 78.6731 21.497C78.754 21.3197 78.7497 21.2484 78.657 21.2127C78.5785 21.1824 78.5262 20.9127 78.5142 20.4742C78.419 17.0017 78.1291 15.641 77.4654 15.5469C77.3717 15.5336 77.1449 15.475 76.9616 15.4165C76.3876 15.2332 73.5492 14.9727 72.9541 15.0486C72.6496 15.0874 71.9474 15.1366 71.3936 15.1577C70.8398 15.1785 69.1862 15.2665 67.7189 15.3529C66.2517 15.4393 64.2357 15.5372 63.2389 15.5703C62.2422 15.6031 61.3806 15.6666 61.3242 15.7109C61.2671 15.7551 59.8402 15.8127 58.153 15.8387C56.2839 15.8676 54.9733 15.9297 54.8008 15.9969C54.6449 16.0575 54.3197 16.1072 54.0783 16.1072C53.6041 16.1072 53.0203 16.6258 53.0203 17.0473C53.0202 17.1512 52.9508 17.5047 52.866 17.8326C52.5748 18.9562 52.6615 23.6806 53.0279 26.6813C53.3943 29.6818 53.5493 35.1639 53.3138 36.8021C53.1834 37.7099 53.0057 38.4886 52.9013 38.6099C52.8561 38.6625 52.8192 38.8012 52.8192 38.918C52.8192 39.2395 51.9465 40.9477 51.6108 41.2836C51.5832 41.3112 51.4713 41.5091 51.3625 41.7231C51.0897 42.2586 49.7109 43.6986 49.5352 43.6318C49.4433 43.5964 49.3962 43.6523 49.3962 43.7966C49.3962 43.9166 49.3537 43.9885 49.3019 43.9565C49.2155 43.9031 49.0156 43.9794 47.8245 44.5198C47.5971 44.6232 47.2942 44.7077 47.1516 44.7077C47.009 44.7077 46.561 44.7784 46.1558 44.8651C45.1844 45.073 42.7739 44.7532 42.1068 44.3279C42.0462 44.2891 41.9738 44.2567 41.9462 44.2559C41.8002 44.2515 40.9308 43.6283 40.8892 43.4984C40.8622 43.4147 40.6617 43.236 40.4434 43.101C40.2249 42.9659 39.9884 42.7472 39.9176 42.6149C39.8468 42.4827 39.6628 42.2845 39.5084 42.1746C39.3542 42.0648 39.228 41.9296 39.2279 41.8741C39.2279 41.8187 39.1004 41.5839 38.9445 41.3522C38.494 40.6829 37.6992 38.9712 37.6425 38.5484C37.6139 38.3357 37.5556 38.1617 37.5129 38.1617C37.4699 38.1616 37.3318 37.9123 37.2056 37.6078C37.0794 37.3032 36.9462 37.0538 36.9098 37.0538C36.8733 37.0534 36.7873 36.8613 36.7187 36.626C36.5467 36.0374 36.1044 35.1406 35.986 35.1406C35.9327 35.1405 35.9089 35.0839 35.9337 35.0147C35.9849 34.8712 35.7325 34.322 35.5644 34.2106C35.4883 34.1602 35.4953 34.1362 35.587 34.1351C35.6677 34.1341 35.5874 33.9644 35.3857 33.7095C35.2011 33.4767 35.0502 33.2554 35.05 33.2176C35.05 33.1801 34.875 32.9893 34.6614 32.7936C34.448 32.5978 34.3035 32.3887 34.3404 32.3291C34.3774 32.2693 34.3596 32.2203 34.301 32.2203C34.2422 32.2203 34.1943 32.2682 34.1943 32.3271C34.1942 32.3856 34.1508 32.4066 34.098 32.3741C34.0449 32.3413 34.0237 32.2575 34.0502 32.188C34.1493 31.93 31.8932 30.0047 31.4917 30.0045C31.4485 30.0045 31.2222 29.9126 30.989 29.7999C29.8606 29.2545 26.4679 29.1398 25.9773 29.6305C25.9377 29.6701 25.8199 29.7027 25.7155 29.7027C25.4209 29.7028 24.7387 30.1122 24.2479 30.5839C24.0027 30.8192 23.7752 31.0117 23.7421 31.0117C23.4339 31.0118 22.1984 32.6546 22.1512 33.1264C21.9516 35.1324 22.253 36.7832 23.014 37.8521C23.1277 38.0119 23.2209 38.1913 23.2209 38.2512C23.221 38.4143 23.7855 38.9556 24.6301 39.6027C25.0454 39.9208 25.5833 40.3491 25.8253 40.5542C26.2729 40.9335 27.2929 41.5858 27.4386 41.5858C27.4826 41.5858 27.5982 41.6738 27.6956 41.7813C27.7932 41.8891 28.015 42.0072 28.1894 42.0445C28.3635 42.0814 28.574 42.1702 28.657 42.2417C28.74 42.3131 28.9686 42.4376 29.1645 42.5183C29.3605 42.5993 29.587 42.729 29.668 42.8066C29.749 42.8839 29.9961 42.9989 30.2174 43.0619C30.4389 43.1251 30.9373 43.2969 31.325 43.444C31.7125 43.5908 32.4275 43.8443 32.9137 44.0073C33.9195 44.3444 35.6075 44.9659 36.0569 45.1643C36.5958 45.4022 38.7142 46.2178 38.7946 46.2183C38.8661 46.2183 39.7204 46.5355 40.1842 46.7344C40.2951 46.7817 40.703 46.9374 41.0905 47.0803C41.478 47.2233 41.8859 47.396 41.9968 47.4647C42.1074 47.5335 42.4247 47.6731 42.7013 47.7749C42.9782 47.8767 43.4765 48.1045 43.8088 48.2818C44.1409 48.4588 44.5772 48.658 44.7781 48.7239C44.979 48.79 45.2239 48.9331 45.3222 49.0419C45.4206 49.1505 45.5931 49.2395 45.7055 49.2395C45.8179 49.2395 46.0035 49.3252 46.1177 49.4301C46.2322 49.535 46.484 49.7061 46.6778 49.8102C47.1778 50.0788 47.5946 50.3595 47.885 50.6232C48.0229 50.7481 48.1959 50.8507 48.2695 50.8507C48.3434 50.8507 48.4717 50.9187 48.5547 51.0017C48.7545 51.2016 48.8531 51.1924 49.094 50.9514C49.2049 50.8408 49.3358 50.75 49.385 50.75C49.4342 50.75 49.468 50.6724 49.4605 50.5777C49.4524 50.479 49.5328 50.3876 49.6478 50.3644C49.7583 50.342 49.8717 50.2948 49.8994 50.2591C49.9959 50.1348 50.8014 49.6425 50.9088 49.6421C50.9679 49.6421 51.1164 49.5331 51.2382 49.3999C51.4415 49.1776 52.7 48.607 52.9954 48.6031C53.0645 48.6023 53.1208 48.5413 53.1209 48.4674C53.1209 48.3539 53.3821 48.2804 53.6462 48.3199C53.6858 48.3259 53.8442 48.2824 53.9985 48.2236C54.1525 48.1648 54.3919 48.1 54.5304 48.0797C54.6688 48.0594 55.0315 47.9761 55.336 47.8946C55.8359 47.7611 56.3263 47.6717 57.0474 47.5835C58.9664 47.3484 59.4762 47.3126 60.0984 47.3697C60.4969 47.4061 62.4536 47.4587 64.4468 47.4866C66.4403 47.5145 68.3168 47.5424 68.6166 47.5486C69.1026 47.559 69.1864 47.5287 69.3917 47.2713C69.6366 46.9641 69.5704 46.7224 69.2418 46.7214C69.1516 46.7211 68.7084 46.5884 68.2572 46.4267C67.806 46.2651 67.2172 46.1027 66.9486 46.0657C66.6801 46.029 66.347 45.9781 66.2086 45.9526C66.07 45.9271 65.6174 45.889 65.2022 45.8682C64.7868 45.8474 64.243 45.8066 63.9939 45.7775C63.7446 45.7486 63.269 45.6947 62.937 45.658C61.3924 45.4875 60.8054 45.3719 59.8308 45.0478C59.3796 44.8977 58.9391 44.7145 58.8516 44.6406C58.7642 44.5666 58.6283 44.5049 58.5494 44.503C58.3329 44.4981 58.0371 44.2405 58.0721 44.0874C58.0893 44.0127 58.0016 43.809 57.8772 43.6344C57.6019 43.2475 57.5604 42.3912 57.8068 42.1866C57.8922 42.1155 57.9485 41.987 57.9319 41.9011C57.8945 41.7055 58.438 41.1521 58.8442 40.9722C59.0121 40.898 59.1712 40.7546 59.1975 40.6536C59.2337 40.5149 59.3294 40.4763 59.5934 40.4942C59.7852 40.507 60.0511 40.4459 60.1846 40.3585C60.6731 40.0383 61.9939 40.0002 70.9405 40.0475C78.2886 40.0866 78.5918 40.013 78.5765 38.1872C78.5736 37.8685 78.6181 37.1343 78.6751 36.5556C78.7321 35.9766 78.7469 35.4329 78.7079 35.347C78.5897 35.0856 78.6303 34.6851 78.7722 34.7142C78.8742 34.735 78.8777 34.6942 78.7882 34.5271C78.6596 34.2865 78.5656 32.321 78.6827 32.321C78.7714 32.3207 78.7386 31.5442 78.639 31.2886C78.5929 31.1707 78.6179 31.1127 78.7152 31.1127C78.8661 31.1126 78.8896 30.8464 78.7572 30.6322C78.7135 30.5614 78.7303 30.5082 78.7966 30.5081C78.8603 30.5081 78.9362 30.5989 78.9653 30.7095C78.9942 30.8203 79.0654 30.9109 79.1234 30.9111C79.1817 30.9111 79.1995 30.8812 79.163 30.8447C79.073 30.7546 79.2885 30.5082 79.4571 30.5081C79.5526 30.5081 79.5803 30.606 79.5499 30.8356C79.5085 31.1448 79.5122 31.1419 79.6203 30.785C79.7207 30.4531 79.941 30.2249 79.8754 30.5208C79.8616 30.583 79.9131 30.6569 79.9898 30.6848C80.0816 30.7181 80.1033 30.6926 80.0525 30.6106C80.0086 30.5393 80.0347 30.449 80.1135 30.4003C80.2252 30.3314 80.2131 30.2836 80.051 30.1532C79.9019 30.0335 79.8843 29.978 79.9827 29.9374C80.0553 29.9074 80.1561 29.7742 80.2063 29.6417C80.301 29.3929 80.7315 29.2984 80.8556 29.4991C80.9236 29.609 80.7364 30.0145 80.5649 30.1291C80.4955 30.1754 80.517 30.2035 80.6221 30.2046C80.7144 30.2053 80.8076 30.1524 80.8295 30.0871C80.8511 30.0218 80.9371 29.9947 81.0206 30.0266C81.2001 30.0956 81.2789 31.0576 81.1131 31.1599C80.9692 31.249 80.9798 31.4204 81.1276 31.3893C81.3199 31.3489 81.3481 31.7417 81.1629 31.8774C81.0057 31.9922 81.0067 32.0087 81.1771 32.1105C81.3535 32.2161 81.3535 32.2253 81.1787 32.3611C81.079 32.4387 81.0429 32.5178 81.0986 32.5373C81.1543 32.5572 81.2134 32.9286 81.2297 33.3628C81.2461 33.7968 81.2879 34.1695 81.3228 34.1918C81.3574 34.2131 81.3665 34.4924 81.3428 34.8118C81.3194 35.1313 81.2853 35.7096 81.2674 36.0972C81.2494 36.4851 81.2084 36.9069 81.1764 37.0345C81.1444 37.1623 81.1706 37.3826 81.2351 37.5239C81.3329 37.7386 81.3238 37.8018 81.1799 37.907C81.0045 38.0353 80.9334 38.2198 81.0989 38.1175C81.1484 38.0869 81.125 38.2758 81.0463 38.5372C80.9677 38.7987 80.9247 39.069 80.9512 39.1379C80.9775 39.2069 80.9335 39.3893 80.8531 39.5434C80.773 39.6975 80.7067 39.873 80.7065 39.9337C80.7059 39.9943 80.6152 40.1261 80.5047 40.2263C80.3938 40.3265 80.3031 40.4923 80.3031 40.5944C80.3031 40.6967 80.2401 40.7802 80.1631 40.7802C80.0858 40.7803 79.9949 40.8927 79.9603 41.0304C79.9228 41.1801 79.802 41.3046 79.6599 41.3403C79.5293 41.3731 79.3724 41.5097 79.3112 41.6441C79.2501 41.778 79.1374 41.8878 79.0606 41.8879C78.9839 41.8879 78.7988 41.984 78.6494 42.1017C78.4459 42.2618 78.2915 42.3009 78.0319 42.2588C77.7719 42.2166 77.6858 42.2388 77.6857 42.3472C77.6857 42.4269 77.6516 42.4931 77.6102 42.4942C77.5686 42.4955 77.1725 42.5135 76.7301 42.5346C76.2005 42.5599 75.8389 42.5282 75.6729 42.4428C75.4611 42.3338 75.3981 42.3369 75.2815 42.4627C75.1665 42.5865 75.1276 42.5891 75.0563 42.4766C75.0085 42.401 74.9697 42.39 74.9689 42.452C74.9668 42.5959 72.5521 42.6116 72.3751 42.4688C72.2898 42.3998 72.2069 42.4017 72.1184 42.4754C71.9244 42.6357 68.1453 42.5688 67.8325 42.3996C67.6861 42.3205 67.6204 42.3136 67.6625 42.3816C67.7004 42.4432 67.6639 42.4921 67.5797 42.4921C67.4967 42.4921 67.4008 42.4467 67.3664 42.3912C67.3367 42.343 67.3503 42.3023 67.3954 42.2928L67.4381 42.2888C67.4834 42.2793 67.4971 42.2384 67.4673 42.1901C67.3726 42.0368 67.1136 42.0696 67.1738 42.227C67.2474 42.4186 66.8491 42.5061 66.7034 42.3307C66.5537 42.1503 66.4328 42.1529 66.2446 42.3411C66.0557 42.5304 65.7023 42.5353 65.452 42.3523C65.3468 42.2755 65.2018 42.2352 65.1295 42.2628C65.0571 42.2907 64.9306 42.2573 64.8484 42.1891C64.7443 42.1027 64.6987 42.0993 64.6987 42.1777C64.6986 42.2398 64.6079 42.2908 64.4974 42.2908C64.3866 42.2908 64.3073 42.2399 64.321 42.1774C64.3348 42.1152 64.2884 42.0431 64.2173 42.017C64.1463 41.991 64.1011 42.0295 64.1167 42.1027C64.1585 42.2994 63.7041 42.3382 63.6295 42.1444C63.5821 42.0207 63.5357 42.0099 63.4297 42.0978C63.3538 42.1608 63.2169 42.1838 63.1253 42.1487C63.0337 42.1136 62.8474 42.1578 62.711 42.2471C62.5747 42.3364 62.3746 42.3863 62.2658 42.3579C62.1573 42.3295 61.9127 42.3716 61.7219 42.4512C61.5314 42.5309 61.251 42.587 61.099 42.5758C60.1742 42.5092 60.2669 42.9266 61.2253 43.1452C61.6131 43.2335 62.1341 43.3521 62.3832 43.4089C62.6325 43.4656 62.9495 43.5116 63.0879 43.5111C63.2265 43.5103 63.6569 43.5723 64.0443 43.6494C64.4318 43.7264 65.2021 43.7929 65.7557 43.7973C67.0901 43.808 67.9949 43.9078 68.4737 44.0968C68.5846 44.1405 68.8564 44.2342 69.0778 44.305C69.2993 44.3761 69.5076 44.4752 69.5401 44.5254C69.5729 44.5759 69.7044 44.6248 69.8324 44.6345C69.9604 44.6441 70.0859 44.7324 70.1117 44.8307C70.1432 44.9518 70.2559 45.0097 70.4594 45.0097C70.6769 45.0097 70.7454 45.0493 70.7061 45.1516C70.6721 45.2403 70.7564 45.3365 70.9328 45.4096C71.2313 45.5333 71.6452 46.0187 71.6452 46.2452C71.6453 46.3202 71.7102 46.469 71.7901 46.5765C72.2655 47.2182 71.5005 49.3273 70.7885 49.3373C70.6774 49.3389 70.5296 49.4308 70.4604 49.5417C70.3537 49.7125 70.3041 49.7244 70.1366 49.6198C69.9706 49.5162 69.9164 49.5268 69.7999 49.6864C69.6541 49.8855 68.2991 49.9655 68.0178 49.7916C67.9196 49.731 66.9844 49.6907 66.8881 49.7431C66.7816 49.8011 64.1409 49.7829 63.5182 49.7197C60.9394 49.4583 57.2942 49.5071 56.544 49.813C56.3726 49.883 56.4185 49.8752 55.5106 49.9859C55.1363 50.0316 54.8053 50.1088 54.7749 50.1575C54.7447 50.2064 54.609 50.2464 54.4737 50.2464C54.3381 50.2465 53.9927 50.3599 53.7057 50.4984C53.4187 50.6368 53.1308 50.75 53.0658 50.75C53.0086 50.7502 52.7084 50.8889 52.3646 51.0719L52.0657 51.2336C51.7219 51.4167 51.4238 51.5554 51.3696 51.5554C51.3074 51.5554 51.2002 51.6464 51.131 51.757C51.0618 51.8679 50.9431 51.9583 50.8674 51.9584C50.5288 51.9584 50.5025 52.2229 50.8069 52.5642C50.9722 52.7495 51.1076 52.9383 51.1076 52.9836C51.1076 53.0289 51.1642 53.0672 51.2334 53.0686C51.3026 53.0699 51.4311 53.2172 51.519 53.3957C51.6078 53.5764 51.7705 53.7345 51.8858 53.7516C51.9996 53.7687 52.3129 54.0331 52.5819 54.3394C52.8507 54.6458 53.2613 55.0852 53.4942 55.3159C53.7269 55.5463 53.9851 55.8935 54.0678 56.0874C54.1506 56.2811 54.3562 56.5985 54.5251 56.7924C54.6939 56.986 54.8319 57.2027 54.8323 57.2736C54.8323 57.3447 54.9042 57.4305 54.9919 57.4641C55.0931 57.5028 55.1119 57.5498 55.0435 57.5919C54.8733 57.6974 55.1411 58.3027 55.3581 58.3027C55.4564 58.3028 55.537 58.3619 55.5371 58.4337C55.5371 58.6198 55.7743 59.1068 55.8654 59.1079C55.9074 59.1087 56.0141 59.29 56.1025 59.5113C56.1913 59.7328 56.3044 59.9142 56.3536 59.9142C56.403 59.9144 56.4433 60.0263 56.4433 60.1629C56.4433 60.3523 56.4829 60.3963 56.6093 60.3477C56.7449 60.2956 56.7655 60.3341 56.7229 60.5579C56.6924 60.7167 56.7264 60.8879 56.8035 60.9652C56.8768 61.0384 56.968 61.2284 57.006 61.3875C57.044 61.5465 57.112 61.7237 57.157 61.7813C57.3243 61.9965 57.7865 64.5089 57.6884 64.669C57.6585 64.7174 57.6807 64.813 57.7377 64.8817C57.968 65.1595 57.9043 68.5331 57.6658 68.6735C57.5656 68.732 57.5504 68.7713 57.6271 68.7734C57.7185 68.7755 57.7393 68.91 57.7013 69.2546C57.6725 69.5178 57.6277 69.9597 57.6022 70.2367C57.5767 70.5134 57.512 70.944 57.4586 71.1933C57.4053 71.4424 57.3329 71.8226 57.298 72.0378C57.2631 72.2529 57.147 72.592 57.0403 72.7914C56.9334 72.9907 56.8459 73.2312 56.8459 73.3257C56.8459 73.4202 56.8027 73.5243 56.7498 73.5571C56.6968 73.5899 56.6785 73.6823 56.7094 73.7625C56.7401 73.8427 56.6314 74.0792 56.468 74.288C56.3044 74.4966 56.1883 74.7171 56.2095 74.7781C56.2311 74.839 56.1792 74.9465 56.0944 75.0171C56.0096 75.0876 55.9399 75.2347 55.9399 75.344C55.9399 75.5364 55.6249 76.0736 55.3917 76.2788C55.2584 76.3963 54.9332 77.0652 54.9332 77.2222C54.9331 77.281 54.8424 77.3774 54.7319 77.4368C54.6211 77.4961 54.5304 77.6105 54.5304 77.6912C54.5303 77.7718 54.2981 78.0987 54.014 78.4178C52.4809 80.1388 52.0909 80.5336 51.3089 81.1575C50.8381 81.5329 50.3301 81.956 50.1794 82.0979C50.029 82.2398 49.8188 82.3836 49.7123 82.4175C49.6057 82.4513 49.4952 82.568 49.4666 82.6768C49.4382 82.7858 49.3314 82.8753 49.2295 82.8753C49.1274 82.8756 48.7719 83.0575 48.4398 83.2798C48.1075 83.5021 47.6213 83.7488 47.3595 83.8274C47.0977 83.9063 46.7587 84.0867 46.6057 84.2286C46.4529 84.3704 46.1913 84.5494 46.0244 84.6264C45.0287 85.0872 44.5454 85.292 44.4543 85.292C44.3972 85.292 44.1608 85.3976 43.9288 85.5264C43.5262 85.7502 42.0647 86.2648 41.554 86.3627C41.4213 86.388 41.2242 86.4708 41.1159 86.5465C40.9684 86.6501 40.8463 86.6587 40.6254 86.5816C40.4045 86.5046 40.2907 86.5127 40.1687 86.6139C40.0794 86.6881 39.7973 86.7595 39.5417 86.7726C39.2862 86.7856 38.9185 86.8224 38.7247 86.8542C37.7297 87.0179 36.5598 87.1328 35.6942 87.1526C35.1629 87.1649 34.6766 87.2066 34.6139 87.2454C34.5512 87.2842 33.8534 87.3104 33.0633 87.3036C32.2735 87.2969 31.4997 87.2956 31.3438 87.3008C31.1882 87.306 31.0076 87.2774 30.9425 87.237C30.8285 87.1665 30.6219 87.1447 29.4886 87.083C29.1013 87.0621 28.9595 87.0141 28.9569 86.9032C28.9538 86.7851 28.9303 86.7912 28.8496 86.9302C28.7586 87.0863 28.7216 87.0907 28.5442 86.9663C28.4331 86.8885 28.2552 86.8477 28.149 86.8755C28.0425 86.9034 27.8755 86.8937 27.7777 86.8542C27.68 86.8146 27.4266 86.7723 27.2145 86.7601C27.0024 86.7481 26.788 86.6735 26.7377 86.5943C26.6742 86.4939 26.6462 86.4883 26.6452 86.576C26.6428 86.7674 26.2992 86.7262 26.0116 86.5C25.8659 86.3855 25.6849 86.3256 25.592 86.3612C25.4226 86.4263 24.5619 86.2302 24.3693 86.0826C24.3087 86.0363 24.2306 86.0274 24.1955 86.0625C24.1059 86.1519 23.8148 85.8932 23.8821 85.7841C23.9126 85.7349 23.8894 85.6949 23.8305 85.6949C23.772 85.6949 23.7241 85.7402 23.7241 85.7956C23.7241 85.9471 23.4566 85.9163 23.2854 85.745C23.2024 85.662 23.0405 85.594 22.926 85.594C22.8113 85.594 22.6267 85.5035 22.5161 85.3926C22.4037 85.2805 22.1805 85.1911 22.0114 85.191C21.8446 85.191 21.6291 85.1488 21.5331 85.0965C21.4367 85.0444 20.8373 84.7666 20.2006 84.4792C18.8614 83.8747 18.0951 83.4955 17.895 83.3383C17.8172 83.2773 17.6133 83.1812 17.4419 83.1245C17.2529 83.0617 17.1347 82.9565 17.1422 82.8573C17.1487 82.7675 17.0356 82.6328 16.8904 82.5581C16.3122 82.26 15.9191 81.9447 15.8649 81.7356C15.8215 81.5675 15.7441 81.5224 15.5378 81.5445C15.3283 81.5669 15.2677 81.5299 15.2677 81.38C15.2677 81.2704 15.1791 81.1634 15.0633 81.1331C14.9509 81.1037 14.8657 81.0417 14.8737 80.9954C14.9156 80.7567 14.8493 80.6505 14.6885 80.6989C14.4813 80.7614 14.2408 80.5988 14.0722 80.282C14.0058 80.1574 13.8855 80.0553 13.8046 80.0552C13.6094 80.0552 12.7384 79.131 12.7938 78.9827C12.8178 78.9189 12.7466 78.8428 12.6355 78.8136C12.5244 78.7847 12.409 78.6671 12.3791 78.552C12.3489 78.4373 12.2794 78.3433 12.2248 78.3433C12.1699 78.3433 12.1484 78.2823 12.177 78.2078C12.2136 78.1126 12.1614 78.0856 12.0004 78.1163C11.7693 78.1605 11.5819 77.9196 11.6995 77.7296C11.7303 77.6791 11.6454 77.5958 11.5107 77.5445C11.3681 77.4904 11.1751 77.2641 11.0491 77.0041C10.9302 76.7583 10.7432 76.4763 10.6339 76.3772C10.5246 76.2782 10.4351 76.1396 10.4351 76.0696C10.435 75.9992 10.333 75.8136 10.2087 75.6569C9.81655 75.1645 9.60756 74.7111 9.65592 74.4585C9.69157 74.2709 9.65904 74.2142 9.51512 74.2142C9.39725 74.2142 9.32782 74.1424 9.32782 74.02C9.32776 73.9133 9.21535 73.7378 9.0785 73.6298C8.88647 73.4788 8.81362 73.3026 8.76209 72.8646C8.72541 72.5515 8.65647 72.2713 8.60884 72.2417C8.56123 72.2123 8.52245 72.0867 8.52244 71.9628C8.52244 71.8387 8.4698 71.6845 8.40578 71.6204C8.31757 71.5322 8.31853 71.4684 8.40985 71.3583C8.48298 71.2703 8.49156 71.1989 8.43171 71.1778C8.37733 71.1585 8.31159 71.0295 8.28583 70.891C8.26007 70.7526 8.18741 70.5069 8.1247 70.345C8.06201 70.1834 8.03289 69.9931 8.05989 69.9225C8.08696 69.8519 8.07361 69.5699 8.03041 69.2958C7.97342 68.935 7.99066 68.7235 8.09268 68.5286C8.20453 68.3149 8.20821 68.2285 8.11047 68.1109C8.0186 68 8.01622 67.9329 8.10132 67.8478C8.18218 67.7668 8.18414 67.6963 8.10843 67.6047C7.98694 67.4584 8.07032 67.2658 8.25508 67.2658C8.32325 67.2658 8.38577 67.1749 8.39409 67.0642C8.40241 66.9534 8.37297 66.863 8.32878 66.8629C8.2174 66.8629 8.27736 66.2404 8.43298 65.7825C8.50372 65.5738 8.56695 65.3576 8.57326 65.302C8.59903 65.0765 8.95625 64.3903 9.08689 64.3151C9.1639 64.2708 9.22718 64.1757 9.22718 64.1038C9.22722 63.906 9.53087 63.3387 9.63686 63.3384C9.68838 63.3384 9.73186 63.2815 9.73369 63.2123C9.73837 63.0376 10.0448 62.6883 10.2687 62.6026C10.3706 62.5636 10.4779 62.4412 10.5068 62.3306C10.5357 62.2202 10.5994 62.1295 10.6484 62.1295C10.6972 62.1295 10.737 62.0813 10.737 62.0225C10.7374 61.868 11.9176 60.9216 12.1102 60.9212C12.1406 60.9212 12.301 60.8251 12.466 60.7074C12.6312 60.5898 12.9485 60.4526 13.171 60.4026C13.3938 60.3524 13.6351 60.2523 13.7075 60.1799C13.901 59.9868 15.7273 59.793 16.224 59.913C16.4455 59.9663 16.7768 60.0111 16.96 60.0124C17.3229 60.015 18.293 60.4331 18.491 60.6721C18.5589 60.7538 18.6728 60.8203 18.7441 60.8203C18.8154 60.8203 18.9884 60.9565 19.1281 61.1226C19.2678 61.2886 19.4472 61.4247 19.5266 61.4248C19.6986 61.4248 20.3012 62.1036 20.3012 62.2971C20.3013 62.3712 20.3418 62.4318 20.3917 62.4318C20.4414 62.4318 20.5843 62.6244 20.7089 62.8597C20.8336 63.095 20.9966 63.401 21.0711 63.5395C21.1452 63.6779 21.2063 63.9051 21.2065 64.0441C21.2071 64.1831 21.2915 64.3494 21.3946 64.4137C21.4989 64.4791 21.609 64.7016 21.6434 64.9166C21.6775 65.1287 21.8583 65.6072 22.0457 65.9797C22.2331 66.3522 22.4638 66.9185 22.5583 67.2381C22.653 67.5577 22.7953 67.9396 22.8747 68.0867C22.9543 68.2338 23.0193 68.4068 23.0193 68.4714C23.0194 68.5357 23.1328 68.7369 23.2712 68.9183C23.4096 69.1 23.5228 69.2937 23.5228 69.3492C23.5229 69.4047 23.6096 69.5282 23.7152 69.624C23.8208 69.7198 23.9369 69.9168 23.9734 70.062C24.059 70.4033 24.4061 70.8207 25.4497 71.8385C25.7617 72.1428 26.1323 72.4209 26.2729 72.4563C26.4134 72.4915 26.6064 72.6071 26.7021 72.7128C26.7979 72.8187 26.9318 72.9052 26.9995 72.9052C27.0671 72.9053 27.1789 72.9733 27.2475 73.0563C27.3165 73.1395 27.4548 73.2073 27.555 73.2073C27.655 73.2073 27.8077 73.2782 27.8941 73.3649C27.9807 73.4513 28.0961 73.4948 28.1502 73.4612C28.2047 73.428 28.3522 73.4667 28.4781 73.5477C29.274 74.0592 32.1114 74.2501 33.2819 73.871C33.5346 73.789 34.008 73.6455 34.3338 73.5517C34.6596 73.458 35.0008 73.3083 35.0919 73.219C35.2572 73.0568 35.5975 72.8729 35.9309 72.7664C36.0276 72.7355 36.1069 72.6418 36.107 72.5585C36.107 72.4749 36.2597 72.3261 36.446 72.2277C36.8403 72.0199 37.8173 70.9344 37.8219 70.6991C37.8235 70.6109 37.89 70.4527 37.9696 70.3475C38.049 70.2426 38.089 70.1158 38.0583 70.0661C38.0276 70.0166 38.0538 69.9143 38.1162 69.8391C38.3931 69.5051 38.5656 68.5322 38.5541 67.3663C38.5414 66.043 38.5333 65.9566 38.4243 65.9566C38.3678 65.9566 38.3221 65.8829 38.3221 65.7929C38.3221 65.5552 37.8325 64.4765 37.4595 63.8921C37.2828 63.6151 37.0595 63.2184 36.9634 63.0107C36.8508 62.7672 36.7208 62.6335 36.5967 62.6334C36.4835 62.6334 36.3642 62.5284 36.3075 62.3789C36.2544 62.2389 36.1195 62.0266 36.0079 61.9068C35.8962 61.7871 35.8051 61.6522 35.8051 61.6071C35.8051 61.5623 35.7373 61.5253 35.6543 61.5252C35.5716 61.5252 35.3337 61.3767 35.1257 61.1948C34.9181 61.0128 34.476 60.6648 34.1437 60.4212C33.8117 60.1775 33.5171 59.9459 33.4895 59.9069C33.4619 59.8681 33.2805 59.7687 33.087 59.6865C32.8931 59.6039 32.6102 59.429 32.4585 59.2975C32.3068 59.1658 31.8324 58.8769 31.4045 58.6553C30.9767 58.4338 30.3082 58.0712 29.9188 57.8497C29.5296 57.6282 29.0752 57.3811 28.9089 57.3006C28.7428 57.2201 28.4859 57.0452 28.338 56.9119C28.1905 56.7786 28.0245 56.6974 27.9693 56.7314C27.9139 56.7655 27.7337 56.68 27.569 56.5412C27.404 56.4025 27.1943 56.2888 27.1027 56.2888C27.0113 56.2888 26.8233 56.1753 26.6851 56.0368C26.5467 55.8984 26.3668 55.7852 26.2856 55.7852C26.1188 55.7852 25.7856 55.6129 25.486 55.3713C25.3752 55.282 24.99 55.0393 24.6301 54.8318C24.2703 54.6247 23.9397 54.3918 23.8954 54.3145C23.8509 54.2372 23.7231 54.1742 23.611 54.1742C23.4991 54.1742 23.1754 53.9396 22.892 53.653C22.6086 53.3667 22.3591 53.1852 22.3375 53.2503C22.3156 53.3154 22.2447 53.3683 22.1794 53.3683C22.0034 53.3683 21.8063 52.9997 21.8716 52.7932C21.9254 52.6226 21.9207 52.6224 21.7842 52.7884C21.6478 52.9537 21.6287 52.9519 21.449 52.7528C21.2356 52.5173 20.755 52.2431 20.6822 52.3158C20.6562 52.3418 20.4921 52.2267 20.3178 52.0601C20.1438 51.8936 19.9748 51.7572 19.9427 51.757C19.9104 51.757 19.6719 51.5568 19.413 51.3124C18.8116 50.7444 18.5011 50.4693 18.048 50.1031C17.8476 49.9411 17.6836 49.7555 17.6836 49.6907C17.6834 49.5074 17.2788 49.1858 17.0879 49.2173C16.9807 49.2348 16.5938 48.896 16.0527 48.3108C15.5775 47.7969 15.0416 47.2176 14.8623 47.0237C14.6828 46.83 14.5676 46.7282 14.6059 46.7974C14.644 46.8666 14.6273 46.9232 14.5685 46.9232C14.51 46.9232 14.462 46.855 14.462 46.772C14.4621 46.689 14.5105 46.621 14.5698 46.621C14.6291 46.621 14.6099 46.553 14.5268 46.47C14.4436 46.387 14.3371 46.319 14.29 46.319C14.1903 46.3188 14.015 46.0824 13.4315 45.1612C13.3615 45.0509 13.2137 44.8264 13.1029 44.6629C12.6459 43.9885 11.6431 42.0023 11.6431 41.7719C11.643 41.6649 11.5516 41.4536 11.4398 41.3021C11.3242 41.1457 11.231 40.8539 11.224 40.6267C11.2175 40.4065 11.1505 40.1039 11.0753 39.9545C11.0001 39.8048 10.9383 39.5441 10.9383 39.3751C10.9383 39.1712 10.8885 39.0681 10.7894 39.068C10.7074 39.068 10.6207 38.9662 10.5968 38.8415C10.4542 38.1024 10.3542 37.4816 10.3492 37.306C10.3464 37.1951 10.3189 36.9005 10.2885 36.6511C10.2047 35.9609 10.21 32.7429 10.2951 32.6052C10.3362 32.5385 10.3804 32.3455 10.3934 32.1761C10.4478 31.4667 10.5268 31.0379 10.6727 30.6586C10.7578 30.4373 10.8769 30.0637 10.9371 29.8283C10.9974 29.5931 11.0903 29.4006 11.1437 29.4005C11.1968 29.4005 11.2405 29.2967 11.2405 29.1699C11.2406 28.8894 11.5218 28.0939 11.8278 27.5086C11.952 27.2714 12.0258 27.0324 11.992 26.9775C11.9582 26.9226 11.9844 26.8904 12.0502 26.9055C12.1163 26.9208 12.185 26.8432 12.2032 26.7337C12.2214 26.6238 12.2852 26.5176 12.345 26.4978C12.4046 26.4777 12.518 26.3069 12.5969 26.1182C12.6757 25.9296 12.7836 25.7755 12.837 25.7753C12.8904 25.7753 13.031 25.5746 13.1494 25.3299C13.2678 25.0851 13.6117 24.6358 13.9136 24.3315C14.2151 24.0273 14.4619 23.7318 14.462 23.6741C14.462 23.5572 15.0211 23.1194 15.2926 23.0238C15.3961 22.9871 15.4687 22.8589 15.4687 22.7127C15.4687 22.4373 15.5895 22.3276 15.9104 22.3115C16.0519 22.3042 16.1343 22.2228 16.1564 22.0679C16.1744 21.9401 16.2648 21.8077 16.3574 21.7741C16.4501 21.7405 16.6747 21.5845 16.8566 21.4278C17.0385 21.2711 17.3043 21.1426 17.4472 21.1426C17.6576 21.1426 17.6972 21.1041 17.6546 20.9412C17.6257 20.8304 17.6428 20.734 17.693 20.7272C18.0927 20.672 18.442 20.5068 18.6656 20.267C18.7905 20.1333 18.938 20.0515 18.9932 20.0858C19.1287 20.1696 19.8912 19.621 19.9043 19.4306C19.9113 19.3268 19.9304 19.3188 19.9653 19.4055C20.0452 19.6033 20.3754 19.5526 20.5404 19.3173C20.6526 19.1569 20.7535 19.1191 20.9427 19.1665C21.1316 19.2139 21.2329 19.1763 21.3443 19.017C21.4262 18.8999 21.5535 18.8253 21.6271 18.8513C21.7008 18.877 21.8629 18.8605 21.9875 18.8144C22.1246 18.7637 22.2139 18.7693 22.2139 18.8289C22.2139 18.8828 22.2601 18.927 22.3166 18.927C22.3746 18.9269 22.3929 18.8221 22.3591 18.6868C22.3039 18.4668 22.3272 18.4481 22.6338 18.4671C22.8183 18.4786 23.1247 18.4067 23.3149 18.3072C23.5233 18.1985 23.7572 18.1513 23.9045 18.1883C24.056 18.2263 24.1796 18.1988 24.2306 18.1163C24.2959 18.0107 24.3432 18.0088 24.4616 18.1072C24.5696 18.1967 24.6211 18.1991 24.6486 18.1163C24.688 17.9982 24.8734 17.9726 26.3667 17.8779C27.1041 17.831 27.2475 17.8465 27.2475 17.9717C27.2475 18.1679 27.3944 18.1618 27.5995 17.9567C27.7122 17.8439 27.7968 17.8246 27.8676 17.8954C27.9247 17.9524 28.1557 17.9744 28.3813 17.9442C28.7354 17.8966 28.7826 17.9121 28.7266 18.0578C28.6728 18.1982 28.6944 18.2093 28.8542 18.1237C29.0906 17.9972 29.7781 17.9833 29.58 18.1089C29.471 18.1782 29.4745 18.2052 29.5986 18.2528C29.6827 18.2851 29.7674 18.2646 29.7864 18.2071C29.8335 18.066 30.7402 18.2055 30.9153 18.3807C30.9892 18.4543 31.0718 18.4924 31.0991 18.4651C31.1654 18.399 32.3963 18.7335 32.5683 18.8645C32.643 18.9215 32.8764 18.9771 33.087 18.988C33.4546 19.0071 34.6853 19.4853 34.806 19.6561C34.8908 19.7766 35.8719 20.1355 35.9375 20.0703C35.9682 20.0398 36.1559 20.178 36.3553 20.3774C36.5546 20.5768 36.7827 20.7396 36.862 20.7396C36.9412 20.7396 37.0526 20.8266 37.1096 20.9331C37.1916 21.0864 37.7508 21.367 38.0202 21.3899C38.0479 21.3924 38.2932 21.6304 38.5653 21.9187C38.8372 22.2071 39.1048 22.4154 39.1595 22.3817C39.2149 22.3473 39.2275 22.3712 39.188 22.4355C39.1487 22.4991 39.1628 22.6306 39.2195 22.7279C39.3165 22.895 39.3226 22.8944 39.3255 22.7203C39.3296 22.4672 39.5728 22.5662 39.6126 22.8375C39.6304 22.9576 39.707 23.056 39.7832 23.0561C39.8592 23.0561 40.131 23.3166 40.3868 23.635C40.6426 23.9536 40.9687 24.35 41.1116 24.5161C41.2545 24.6822 41.4318 24.9625 41.5063 25.1387C41.5804 25.3149 41.682 25.4845 41.7322 25.5155C41.7822 25.5464 41.8541 25.6942 41.8915 25.8437C41.929 25.9933 42.0383 26.1861 42.1343 26.2725C42.2303 26.359 42.3894 26.6108 42.488 26.8323C42.8229 27.5848 43.1034 28.091 43.1851 28.0912C43.2301 28.0912 43.2388 28.1365 43.2047 28.1919C43.1704 28.2473 43.1941 28.2928 43.2576 28.2928C43.3208 28.2928 43.3536 28.349 43.3308 28.4179C43.3079 28.4866 43.42 28.7652 43.5801 29.0367C43.7927 29.3972 43.8732 29.669 43.8792 30.0444C43.8839 30.3271 43.9365 30.6204 43.9964 30.6965C44.0562 30.7725 44.138 31.1351 44.1781 31.5024C44.2179 31.8694 44.2695 32.296 44.293 32.4504C44.3231 32.6505 44.2816 32.7599 44.1476 32.8317C44.0443 32.8869 43.9605 32.9872 43.9613 33.0547C43.9624 33.1327 43.9968 33.1232 44.0566 33.0287C44.1081 32.9473 44.1788 32.9094 44.2139 32.9448C44.309 33.04 44.0658 33.4439 43.9547 33.3752C43.9021 33.3428 43.8532 33.4095 43.8464 33.5234C43.8235 33.9003 43.8098 33.9389 43.6667 34.0273C43.4453 34.1642 43.1223 33.9919 43.0942 33.722C43.0801 33.5884 43.0418 33.1391 43.009 32.7237C42.9762 32.3082 42.9073 31.8097 42.8563 31.616C42.5136 30.3197 42.1369 29.2842 41.9248 29.0542C41.826 28.9468 41.7447 28.7797 41.7447 28.6825C41.7447 28.5855 41.6994 28.4782 41.6443 28.4438C41.5888 28.4097 41.5436 28.299 41.5436 28.1983C41.5436 28.0975 41.446 27.9505 41.3268 27.8713C41.2077 27.7919 41.1029 27.6315 41.0943 27.5149C41.0756 27.2598 40.8634 26.9836 40.6864 26.9836C40.5162 26.9836 40.4019 26.698 40.4302 26.3445C40.4492 26.1081 40.4208 26.0683 40.2683 26.1157C39.9928 26.2015 39.7312 26.0114 39.9326 25.8714C40.0624 25.7813 40.0599 25.7706 39.9143 25.7959C39.8209 25.812 39.7401 25.7927 39.7349 25.7529C39.7171 25.6244 39.1802 25.1098 39.1023 25.1468C39.0328 25.1799 38.9871 25.0228 39.0141 24.8453C39.0204 24.8047 38.9141 24.7434 38.778 24.7093C38.5266 24.6463 38.3588 24.3485 38.4718 24.1658C38.5712 24.0043 38.1083 23.6062 37.6069 23.4222C37.316 23.3155 37.1026 23.1614 37.0328 23.0083C36.9581 22.8446 36.8063 22.7432 36.5695 22.6987C36.3684 22.6609 36.1539 22.5357 36.0694 22.4066C35.9879 22.2821 35.7712 22.1183 35.5878 22.0423C35.4043 21.9663 35.1483 21.7893 35.0192 21.6492C34.8595 21.4757 34.7682 21.4346 34.7328 21.5201C34.6566 21.7054 34.4518 21.6737 34.2446 21.4446C34.1444 21.334 33.9841 21.2433 33.8883 21.2432C33.6257 21.2432 32.6546 20.924 32.4826 20.7811C32.3995 20.7121 32.0374 20.6033 31.6775 20.5396C31.3176 20.4755 30.9297 20.3631 30.8157 20.2897C30.6999 20.215 30.4819 20.1804 30.3219 20.2111C30.1345 20.2468 29.997 20.2146 29.9249 20.1183C29.8598 20.0311 29.6295 19.9654 29.3617 19.9579C29.1127 19.9509 28.706 19.9395 28.458 19.9327C28.21 19.926 27.9523 19.8751 27.8854 19.8196C27.8076 19.7551 27.6983 19.7531 27.5812 19.814C27.4806 19.8663 26.9074 19.9125 26.3074 19.917C25.656 19.9217 25.1604 19.9708 25.0787 20.0385C25.0034 20.1012 24.8376 20.1657 24.7104 20.1824C24.5832 20.199 24.3998 20.2453 24.303 20.2853C24.1737 20.339 24.1238 20.3086 24.1152 20.1714C24.1053 20.0106 24.097 20.0082 24.0585 20.1549C24.014 20.3239 23.4956 20.5487 23.0285 20.6016C22.895 20.6164 22.7591 20.6718 22.7263 20.7246C22.6936 20.7773 22.4201 20.9008 22.1184 20.9994C21.6461 21.1538 21.1833 21.3853 19.3851 22.3669C19.2167 22.4585 18.9936 22.6115 18.8887 22.7066C18.7839 22.8015 18.6284 22.8522 18.5433 22.8197C18.4507 22.784 18.3883 22.8152 18.3883 22.8977C18.3883 22.9732 18.2186 23.1811 18.0109 23.3594C16.8203 24.3817 16.4301 24.7497 16.2372 25.0327C15.6761 25.8556 14.8519 26.8829 14.7525 26.8829C14.6917 26.8829 14.6675 26.9492 14.6986 27.0306C14.7299 27.1118 14.7101 27.2065 14.6547 27.2406C14.5995 27.2751 14.4831 27.4804 14.3965 27.6972C14.3098 27.914 14.1984 28.0912 14.1489 28.0912C14.0998 28.0913 14.0593 28.1469 14.0592 28.2148C14.0592 28.2827 13.9058 28.7249 13.7176 29.1968C13.3041 30.2355 13.1094 30.8595 12.9395 31.6915C12.8689 32.0377 12.7862 32.3209 12.7557 32.3207C12.7253 32.3207 12.708 32.6608 12.7173 33.0763C12.7329 33.7629 12.7167 33.8313 12.5389 33.8313C12.3523 33.8313 12.3509 33.8434 12.5117 34.0888C12.652 34.3031 12.6616 34.4078 12.5671 34.7157C12.4935 34.9558 12.4879 35.1195 12.5516 35.1835C12.6058 35.2374 12.65 35.5345 12.65 35.8432C12.65 37.0279 12.9725 38.8102 13.3519 39.7227C13.398 39.8333 13.5366 40.1961 13.6597 40.5285C14.0368 41.5448 14.4995 42.5381 14.6351 42.6231C14.7062 42.6673 14.764 42.7694 14.764 42.8496C14.764 42.93 14.807 42.9955 14.8593 42.9955C14.9509 42.9955 15.0458 43.1435 15.4385 43.8975C15.5381 44.0888 15.7385 44.3609 15.8837 44.5018C16.0287 44.6426 16.2602 44.9249 16.3979 45.1284C16.8496 45.7974 17.7304 46.7248 17.865 46.6736C17.9387 46.6452 17.9675 46.6694 17.9311 46.7285C17.7864 46.9628 20.6331 49.4989 21.5859 49.9846C21.7663 50.0767 21.9699 50.2413 22.0381 50.3502C22.106 50.4592 22.2164 50.5484 22.2831 50.5484C22.3494 50.5485 22.4673 50.639 22.5446 50.7493C22.6219 50.8596 22.7155 50.9197 22.7527 50.8825C22.7898 50.8454 22.9444 50.9289 23.0961 51.0678C23.3897 51.337 24.9564 52.3524 25.6962 52.7526C25.9402 52.8847 26.14 53.0543 26.1402 53.1301C26.1402 53.2056 26.1916 53.2676 26.2543 53.2676C26.317 53.2677 26.4416 53.3522 26.5311 53.4555C26.6209 53.5588 26.8435 53.6765 27.0262 53.7166C27.2086 53.7567 27.4075 53.8681 27.4679 53.9649C27.535 54.0724 27.6622 54.1247 27.7962 54.0989C27.9175 54.0757 28.0738 54.1281 28.1469 54.2164C28.2195 54.3038 28.3394 54.3753 28.4128 54.3753C28.4864 54.3753 28.5828 54.4321 28.627 54.5013C28.6713 54.5706 28.8734 54.7115 29.0763 54.8145C29.2791 54.9176 29.6341 55.1781 29.8649 55.3934C30.096 55.6089 30.3272 55.7851 30.3791 55.7852C30.4309 55.7852 30.6649 55.9068 30.8991 56.0554C31.1333 56.2041 31.4053 56.3202 31.5034 56.3134C31.6013 56.3067 31.9502 56.4795 32.2786 56.6976C32.6069 56.9157 32.957 57.0978 33.0567 57.1018C33.1564 57.106 33.3738 57.1969 33.5399 57.3044C33.7062 57.4116 33.9251 57.5278 34.0263 57.5627C34.1418 57.6023 34.1929 57.693 34.1633 57.8057C34.1313 57.9288 34.1608 57.9688 34.256 57.9321C34.3327 57.9027 34.3957 57.9287 34.3958 57.9898C34.3958 58.0512 34.483 58.1016 34.59 58.1016C34.6967 58.1017 34.8519 58.1696 34.9349 58.2526C35.0178 58.3356 35.1503 58.4036 35.2292 58.4037C35.308 58.4037 35.5116 58.5282 35.6815 58.6805C36.3298 59.261 36.6185 59.493 36.7629 59.5484C36.8452 59.5799 36.9126 59.6946 36.9126 59.8034C36.9126 59.9154 36.9733 59.9911 37.087 60.0223L37.1912 60.0436C37.3054 60.0749 37.3657 60.1508 37.3658 60.2653C37.366 60.3752 37.4401 60.4797 37.5304 60.4972C37.7964 60.5486 39.1272 62.2585 39.1272 62.5482C39.1273 62.6068 39.2363 62.7403 39.3694 62.8452C39.5355 62.9759 39.595 63.1014 39.5577 63.2438C39.5205 63.3854 39.5743 63.5011 39.7265 63.6078C39.8782 63.714 39.9167 63.7971 39.847 63.8669C39.7772 63.9366 39.7908 64.0164 39.8897 64.1153C39.9698 64.1952 40.0074 64.3059 39.9735 64.3608C39.9395 64.4158 40.002 64.5594 40.1123 64.6799C40.4519 65.0509 40.7683 67.2958 40.5166 67.5478C40.4228 67.6417 40.4235 67.6685 40.5197 67.6685C40.6914 67.6685 40.5873 69.2549 40.4012 69.4727C40.3266 69.5605 40.2065 69.8588 40.1344 70.1358C40.0623 70.4127 39.9148 70.7379 39.8066 70.8585C39.6983 70.979 39.6387 71.1249 39.6744 71.1824C39.7098 71.2402 39.6468 71.345 39.5339 71.4155C39.421 71.4861 39.3288 71.6373 39.3288 71.7516C39.3288 72.059 37.9462 73.7109 37.6888 73.7109C37.6444 73.711 37.4863 73.8242 37.337 73.9626C37.1877 74.101 36.9855 74.2142 36.8882 74.2142C36.7821 74.2143 36.7111 74.2902 36.7111 74.4034C36.711 74.6129 36.4781 74.8542 36.3754 74.7512C36.3392 74.7152 36.2206 74.7662 36.1116 74.8648C36.0025 74.9637 35.8474 75.0193 35.7667 74.9883C35.6863 74.9574 35.5953 74.9972 35.5646 75.0768C35.5341 75.1562 35.4286 75.2219 35.3301 75.2227C35.2314 75.2235 34.9555 75.2922 34.7168 75.3753C34.4785 75.4585 34.2068 75.5416 34.113 75.5601C33.891 75.6041 33.5839 75.7162 33.3653 75.8331C33.1279 75.9596 32.7848 75.9509 32.7848 75.8184C32.7848 75.7591 32.7079 75.7872 32.6143 75.8809C32.4543 76.0412 32.433 76.0378 32.262 75.8268C32.0809 75.6026 32.0801 75.6027 32.0801 75.8146C32.0801 75.9822 32.0181 76.0268 31.7863 76.0268C31.6247 76.0268 31.4255 76.0528 31.3436 76.0843C31.26 76.1162 31.1001 76.04 30.9796 75.9104L30.7644 75.6793L30.7041 75.9094C30.669 76.0436 30.5897 76.1179 30.5128 76.0886C30.4404 76.0608 30.1857 75.9859 29.947 75.9221C29.7082 75.8583 29.4554 75.7585 29.3849 75.7007C29.3141 75.6429 29.2326 75.6197 29.2032 75.6488C29.1739 75.6782 28.9429 75.6399 28.6903 75.5636C28.4376 75.4877 28.1881 75.4518 28.1357 75.4843C28.0832 75.5166 27.9641 75.4756 27.8707 75.3928C27.7773 75.31 27.6102 75.2236 27.4996 75.2006C27.3888 75.1777 27.3108 75.1018 27.3258 75.0316C27.3445 74.9454 27.2861 74.9255 27.1446 74.9703C27.021 75.0096 26.8366 74.9717 26.6925 74.8772C26.5587 74.7896 26.3912 74.7179 26.3201 74.7179C26.2488 74.7179 26.0591 74.6041 25.8983 74.4659C25.7372 74.3274 25.5786 74.2142 25.5458 74.2142C25.5125 74.2137 25.3542 74.1006 25.1935 73.9626C25.0325 73.8242 24.845 73.711 24.7765 73.7109C24.708 73.7109 24.6243 73.6006 24.5904 73.4661C24.5522 73.3133 24.444 73.2093 24.3027 73.1892C24.1625 73.1692 24.0648 73.0759 24.0461 72.9441C24.0294 72.827 23.9048 72.6807 23.7693 72.619C23.6337 72.557 23.5228 72.4401 23.5228 72.3589C23.5227 72.2777 23.4002 72.1521 23.2503 72.08C23.1002 72.0077 22.952 71.8579 22.921 71.747C22.8156 71.3714 22.3963 70.7904 22.2294 70.7886C22.0876 70.7873 22.085 70.7737 22.2114 70.6935C22.3368 70.6141 22.3233 70.5609 22.1252 70.3501C21.9964 70.2126 21.9211 70.0517 21.9578 69.9921C21.9944 69.9328 21.9818 69.8841 21.9296 69.8841C21.8296 69.8841 21.7188 69.5987 21.6561 69.1806C21.6139 68.8977 21.4827 68.6225 21.082 67.9761C20.9295 67.7299 20.8045 67.4615 20.8045 67.3797C20.8044 67.298 20.7295 67.1485 20.638 67.0472C20.5383 66.9369 20.518 66.8629 20.5877 66.8629C20.6514 66.8629 20.7038 66.7949 20.7038 66.7119C20.7038 66.6289 20.6349 66.5609 20.5503 66.5609C20.4275 66.5609 20.2254 66.2523 20.1549 65.9566C20.1483 65.9287 20.0932 65.8155 20.0326 65.7049C19.8351 65.3444 19.7565 64.8132 19.9129 64.8952C19.9881 64.9345 19.9548 64.8839 19.839 64.7821C19.7232 64.6803 19.5208 64.4156 19.3889 64.1941C19.257 63.9726 19.0571 63.7153 18.9449 63.6223C18.7885 63.4927 18.7684 63.4252 18.8587 63.333C18.9838 63.2055 18.9307 62.964 18.7332 62.7641C18.6673 62.6974 18.5856 62.6707 18.5512 62.7051C18.5168 62.7394 18.3102 62.624 18.0922 62.4488C17.8739 62.2734 17.6021 62.1295 17.4881 62.1295C17.3742 62.1295 17.281 62.0863 17.281 62.0334C17.2809 61.9806 17.1223 61.9077 16.9288 61.8712C16.7042 61.8291 16.5719 61.7453 16.5646 61.6402C16.5544 61.4991 16.5462 61.5009 16.5069 61.6513C16.4517 61.863 16.3277 61.8766 16.1536 61.69C16.0516 61.5806 16.004 61.5783 15.9231 61.678C15.7086 61.9424 14.9327 61.965 14.998 61.705L15.0557 61.4752L14.8595 61.7129C14.7519 61.8434 14.6637 61.9064 14.6636 61.8527C14.6636 61.7991 14.5501 61.7766 14.4117 61.8029C14.2733 61.8294 14.1599 61.8868 14.1599 61.9302C14.1596 62.0386 13.5602 62.3836 13.2256 62.4674C13.0752 62.5054 12.9519 62.5808 12.9519 62.6352C12.9519 62.6896 12.8891 62.7341 12.8121 62.7341C12.7353 62.7341 12.5653 62.8695 12.4347 63.0353C12.3038 63.2008 12.1375 63.3366 12.0649 63.3371C11.9927 63.3376 11.9591 63.3799 11.9905 63.4306C12.062 63.5467 11.7765 63.8416 11.5925 63.8417C11.517 63.8417 11.4231 63.9438 11.3838 64.0682C11.3445 64.1929 11.223 64.3729 11.1137 64.4681C11.0041 64.5634 10.9394 64.7063 10.9698 64.7854C11.0018 64.8689 10.9533 64.9482 10.8542 64.9743C10.76 64.9988 10.6738 65.129 10.6628 65.2633C10.6516 65.3974 10.5306 65.8158 10.394 66.193C10.2571 66.5699 10.1713 66.9459 10.2031 67.0286C10.2345 67.1112 10.2106 67.2775 10.1492 67.3983C10.0881 67.5193 10.0253 67.7976 10.0099 68.0171C9.98704 68.3453 9.93752 68.4281 9.73038 68.4853C9.56724 68.5304 9.54171 68.5581 9.65719 68.5647C9.84455 68.5753 10.0755 69.0276 9.97614 69.189C9.94413 69.2406 9.96588 69.5199 10.0244 69.8098C10.083 70.0998 10.1499 70.5027 10.1736 70.705C10.197 70.9072 10.264 71.1618 10.3223 71.2709C10.3769 71.3728 10.3969 71.4825 10.3703 71.5248L10.3541 71.5452C10.3366 71.574 10.3641 71.596 10.4227 71.596C10.4898 71.596 10.5333 71.6529 10.5192 71.7221C10.5053 71.7914 10.5428 71.9384 10.6034 72.0493C10.6637 72.1599 10.7473 72.4086 10.7889 72.6017C10.8303 72.7948 10.9331 73.0027 11.0169 73.0641C11.1006 73.1256 11.1758 73.2848 11.1838 73.418C11.1959 73.6168 11.9946 74.8369 12.2322 75.0201C12.2685 75.0481 12.411 75.2882 12.5493 75.5535C12.6878 75.8193 12.9257 76.1564 13.078 76.3024C13.2301 76.4487 13.3544 76.6261 13.3545 76.697C13.3545 76.8399 14.23 77.868 14.4031 77.9282C14.4632 77.9493 14.6283 78.0852 14.7696 78.2304C15.1675 78.6389 15.8823 79.2702 16.3023 79.5842C16.5115 79.7406 16.7608 79.9487 16.8561 80.0466C17.3513 80.5555 18.8344 81.4826 20.0997 82.0738C20.349 82.1904 20.8249 82.4136 21.157 82.5698C21.4893 82.7259 21.8742 82.8871 22.0127 82.928C22.1511 82.9688 22.3819 83.0848 22.5258 83.186C22.6694 83.2873 22.9513 83.3812 23.152 83.3947C23.3526 83.4083 23.5394 83.4782 23.567 83.55C23.5946 83.6219 23.6979 83.6802 23.7965 83.6797C23.8951 83.6792 24.2475 83.7669 24.5798 83.8749C25.9182 84.3099 26.4755 84.4404 27.8516 84.6422C28.0455 84.6705 28.3175 84.719 28.456 84.75C28.5942 84.7809 28.9114 84.8254 29.1607 84.8489C29.4098 84.8723 29.9533 84.9331 30.3687 84.9844C30.7973 85.0372 31.9502 85.0446 33.0364 85.0016C34.0881 84.9597 35.025 84.9627 35.1194 85.0082C35.2187 85.0564 35.3159 85.0485 35.3529 84.9884C35.3878 84.9322 35.4575 84.9112 35.508 84.9424C35.5582 84.9736 35.6818 84.955 35.7822 84.9015C35.8829 84.8476 36.3484 84.7764 36.8163 84.7434C37.2844 84.7103 37.8032 84.6604 37.9696 84.632C38.1356 84.6039 38.4529 84.5638 38.6743 84.5433C38.8958 84.5225 39.2753 84.4332 39.5176 84.3447C39.7598 84.2565 40.0687 84.1841 40.2043 84.1841C40.3396 84.1841 40.5227 84.1121 40.6109 84.0239C40.7161 83.9185 40.8678 83.8827 41.0529 83.9197C41.2077 83.9509 41.3594 83.9358 41.3899 83.8866C41.4204 83.8372 41.5921 83.7645 41.7713 83.7252C41.9507 83.6859 42.2548 83.5692 42.4476 83.4659C42.6404 83.3625 42.9577 83.2489 43.1524 83.2132C43.3473 83.1773 43.6146 83.0638 43.7468 82.9613C43.8787 82.8584 44.0628 82.7741 44.1555 82.7741C44.2481 82.7741 44.4117 82.7079 44.5191 82.6264C44.6266 82.5452 44.7956 82.4773 44.8945 82.4754C45.0757 82.472 45.5073 82.2308 45.7543 81.9947C45.8185 81.9332 46.026 81.8428 46.241 81.7799L46.4227 81.7303C46.6252 81.6705 46.7787 81.5939 46.7787 81.5488C46.779 81.4972 46.9487 81.3781 47.1559 81.2839C47.6209 81.0728 48.3741 80.5544 48.6315 80.2683C48.7368 80.1511 48.8762 80.0552 48.9413 80.0552C49.006 80.0552 49.1639 79.9432 49.2925 79.8066C49.4208 79.6699 49.5599 79.5787 49.6013 79.6045C49.6429 79.63 49.7057 79.5361 49.7408 79.3958C49.7777 79.2479 49.8506 79.1691 49.9139 79.2082C49.9737 79.2451 50.0602 79.2145 50.1062 79.14C50.1521 79.0656 50.521 78.662 50.9256 78.2429C51.3303 77.824 51.7972 77.3073 51.9633 77.0948C52.1296 76.8824 52.4391 76.5119 52.6515 76.2717C52.8639 76.0311 53.0173 75.7986 52.9923 75.7546C52.9671 75.7106 53.0306 75.5385 53.1331 75.3725C53.2356 75.2064 53.3626 74.9728 53.4155 74.8534C53.4683 74.7342 53.5595 74.6069 53.6183 74.5707C53.6768 74.5342 53.725 74.422 53.725 74.3213C53.725 74.2208 53.788 74.0861 53.865 74.0223C53.9418 73.9585 54.0283 73.8055 54.0569 73.6824C54.0856 73.5594 54.2489 73.0963 54.4198 72.6533C54.5911 72.2103 54.7314 71.7713 54.7314 71.6779C54.7317 71.5846 54.7846 71.381 54.8488 71.2251C54.9131 71.0692 54.9566 70.9021 54.9457 70.8539C54.9346 70.8059 54.9983 70.6559 55.0872 70.5201C55.2033 70.3426 55.2189 70.2373 55.1421 70.1449C55.0836 70.0744 55.0609 69.9911 55.092 69.9601C55.123 69.9291 55.1709 69.6394 55.1988 69.3166C55.2264 68.9937 55.28 68.7061 55.3177 68.6773C55.5808 68.4776 55.3994 64.1233 55.1134 63.769C55.0588 63.7012 55.0074 63.4637 54.999 63.241C54.9897 62.9927 54.935 62.8356 54.8577 62.8353C54.7554 62.8347 54.6805 62.6086 54.749 62.5073C54.7582 62.4933 54.7046 62.3686 54.63 62.2302C54.5551 62.0917 54.4822 61.8732 54.4681 61.7446C54.4538 61.6158 54.4002 61.4571 54.3492 61.392C54.2982 61.327 54.2265 61.1493 54.1901 60.9967C54.1537 60.8444 54.0568 60.7199 53.9748 60.7199C53.8929 60.7198 53.8256 60.6516 53.8256 60.5686C53.8256 60.324 53.8138 60.2789 53.678 60.0149C53.4966 59.6625 53.346 59.2989 53.2716 59.0331C53.2367 58.9084 53.1485 58.8063 53.0757 58.8063C52.9539 58.8062 52.8072 58.524 52.7781 58.2341C52.7716 58.1685 52.6648 58.0071 52.5409 57.8751C52.4171 57.7432 52.3155 57.5872 52.3155 57.5284C52.3155 57.3404 52.0412 57.167 51.9811 57.3166C51.9522 57.3882 51.9253 57.3506 51.9211 57.2332C51.9086 56.9026 49.3671 54.3756 49.0465 54.3753C48.9619 54.3753 48.893 54.33 48.893 54.2746C48.893 54.2194 48.8489 54.1742 48.7954 54.1742C48.7418 54.1742 48.7265 54.2493 48.7618 54.3414C48.7975 54.4344 48.7846 54.4833 48.7326 54.451C47.9162 53.9462 47.568 57.9534 48.3532 58.8216C48.4357 58.9132 48.489 59.0672 48.4716 59.1638C48.4542 59.2603 48.4962 59.3592 48.5654 59.3834C48.6346 59.4076 48.6914 59.3782 48.6914 59.3183C48.6914 59.2582 48.7367 59.2093 48.7921 59.2093C48.8472 59.2093 48.893 59.2921 48.893 59.3933C48.893 59.5193 49.0602 59.6505 49.4213 59.8077C49.712 59.9342 50.0179 60.0697 50.1009 60.1087C50.184 60.1475 50.4854 60.1683 50.7706 60.155L51.2893 60.1308L51.3345 60.5513C51.3592 60.7824 51.3409 61.0145 51.2939 61.0671C51.2403 61.127 51.2082 61.1238 51.2082 61.0588C51.2081 61.0015 51.1061 60.9622 50.9818 60.9716C50.7711 60.9869 50.6938 61.1728 50.8977 61.1729C51.0483 61.1729 51.1327 61.3026 51.0593 61.4213C51.0132 61.4959 50.8728 61.4588 50.628 61.3076C50.355 61.1387 50.2542 61.1159 50.2211 61.2151C50.1855 61.3218 50.1605 61.3206 50.0902 61.2095C50.0257 61.1078 50.0028 61.129 50.0018 61.2906C50.0011 61.4031 50.0499 61.5166 50.1131 61.5532L50.136 61.5647C50.1717 61.5905 49.9935 61.6141 49.7187 61.6183C49.2802 61.6248 49.1417 61.5821 48.9374 61.3781C48.8011 61.2414 48.6284 61.1532 48.5542 61.1818C48.4054 61.238 47.0804 60.0148 47.0804 59.8212C47.0803 59.5981 46.6281 58.9074 46.443 58.8473C46.3088 58.8038 46.2741 58.7243 46.3162 58.5557C46.356 58.3974 46.3234 58.3045 46.213 58.2621C46.0926 58.216 46.0667 58.1174 46.1098 57.8739C46.1463 57.6685 46.1154 57.4788 46.0265 57.3611C45.9247 57.2262 45.9118 57.1047 45.9805 56.9243C46.0325 56.7872 46.0476 56.6297 46.0135 56.5748C45.8241 56.2681 46.0028 55.056 46.2885 54.7118C46.3517 54.6356 46.412 54.4944 46.4222 54.3986C46.4456 54.1753 46.5901 53.8369 46.6916 53.7679C47.1359 53.464 46.8204 52.3613 46.289 52.3613C46.2338 52.3612 46.129 52.3047 46.056 52.2355C45.9828 52.1662 45.7044 52.0026 45.4374 51.8722C45.1704 51.7415 44.9305 51.5784 44.9039 51.5094C44.8761 51.4368 44.7519 51.4041 44.6091 51.4314C44.422 51.467 44.3624 51.435 44.3623 51.2989C44.3623 51.2003 44.3337 51.1479 44.2988 51.183C44.2639 51.2179 44.0445 51.1348 43.8119 50.9982C43.5789 50.8618 43.3128 50.75 43.2207 50.75C43.1289 50.75 43.0535 50.6872 43.0535 50.6107C43.0534 50.5311 42.8699 50.4253 42.6235 50.3634C42.3869 50.3037 42.039 50.1171 41.8504 49.9487C41.6617 49.7801 41.4134 49.6422 41.2989 49.6419C41.1841 49.6416 40.9546 49.5601 40.7883 49.4609C40.4646 49.2675 39.6364 48.9872 39.4942 49.0234C39.4468 49.0353 39.3406 48.9889 39.2579 48.9202C39.1753 48.8517 39.01 48.781 38.8909 48.7628C38.7717 48.7448 38.6593 48.686 38.6408 48.6324C38.6223 48.5785 38.5544 48.5343 38.4896 48.534C38.3278 48.5334 37.2992 48.1085 37.0033 47.9203C36.7335 47.7485 36.0993 47.5007 35.7547 47.4322C35.6993 47.4213 35.5775 47.3429 35.4838 47.2581C35.3901 47.1732 35.254 47.125 35.1816 47.1508C34.8126 47.282 32.9212 46.3549 32.9693 46.0665C32.9964 45.9046 32.9778 45.89 32.8738 45.9915C32.6989 46.162 32.4341 46.1501 32.2806 45.9651C32.2109 45.8813 32.1034 45.822 32.0417 45.8329C31.8564 45.8659 31.0734 45.7021 31.0726 45.6303C31.0713 45.5365 30.565 45.312 30.3544 45.312C30.2582 45.312 30.1549 45.2726 30.1252 45.2245C30.0955 45.1764 29.8415 45.1064 29.5607 45.0692C29.2618 45.0296 29.0277 44.942 28.9953 44.8574C28.9648 44.778 28.7743 44.6829 28.5721 44.6462C28.0975 44.56 27.2644 44.1433 26.9573 43.8385C26.8251 43.7073 26.6551 43.6001 26.5796 43.6C26.5042 43.6 26.4425 43.5545 26.4424 43.4994C26.4424 43.4439 26.3823 43.3985 26.309 43.3984C26.2356 43.3984 26.069 43.2852 25.9389 43.1468C25.8091 43.0083 25.6539 42.8949 25.5943 42.8946C25.5347 42.8943 25.3153 42.7374 25.1069 42.5458C24.8737 42.3316 24.668 42.2206 24.5719 42.2572C24.4777 42.2934 24.3565 42.2323 24.2656 42.1027C24.1829 41.9845 24.0631 41.8879 23.9988 41.8879C23.9348 41.8879 23.79 41.8004 23.6773 41.6931C22.8029 40.8625 22.5988 40.6897 22.6493 40.8209C22.6891 40.925 22.6603 40.9532 22.5555 40.9129C22.4722 40.8809 22.4283 40.7917 22.4579 40.7144C22.4876 40.6371 22.3993 40.4759 22.2622 40.3567C21.9538 40.0885 21.9494 39.9936 22.2394 39.877C22.4482 39.7932 22.4414 39.7856 22.1542 39.7796C21.692 39.7702 21.3859 39.4095 21.6617 39.1997C21.8571 39.0508 21.8564 39.0487 21.6347 39.1151C21.3615 39.1965 21.2193 38.9438 21.4096 38.7144C21.485 38.6233 21.4928 38.5647 21.4294 38.5647C21.3719 38.5647 21.301 38.6213 21.2723 38.6905C21.2057 38.8501 20.9054 38.5001 20.9053 38.2629C20.9053 38.1734 20.7895 37.9443 20.6479 37.7534C20.4933 37.5452 20.4069 37.317 20.4319 37.183C20.4548 37.0599 20.434 36.984 20.3859 37.0137C20.3377 37.0436 20.3155 36.8597 20.3366 36.6054C20.3579 36.351 20.3386 36.1207 20.2941 36.0931C20.2496 36.0655 20.2183 35.9647 20.2242 35.8686C20.2302 35.7729 20.2038 35.6003 20.166 35.485C20.1176 35.3385 20.1604 35.2179 20.3071 35.0849C20.4226 34.9803 20.5085 34.9386 20.498 34.9923C20.4467 35.2526 20.5031 35.3961 20.5981 35.2461C20.718 35.0563 20.5693 34.7901 20.3427 34.789C20.2464 34.7887 20.1486 34.7316 20.1254 34.6624C20.0986 34.5827 20.1809 34.5363 20.349 34.5363C20.4952 34.5363 20.5898 34.4955 20.559 34.4453C20.5277 34.395 20.4081 34.3785 20.2931 34.4086C20.112 34.4558 20.0884 34.4241 20.117 34.1727C20.1352 34.0126 20.177 33.9046 20.21 33.9322C20.2863 33.996 20.6032 33.7377 20.6032 33.6117C20.6032 33.5599 20.5627 33.5423 20.513 33.573C20.4635 33.6037 20.3931 33.551 20.3567 33.4561C20.2942 33.2931 20.522 33.0259 20.7231 33.0259C20.7678 33.0259 20.8044 32.9752 20.8045 32.9136C20.8045 32.8506 20.7158 32.8242 20.6032 32.8536C20.3461 32.921 20.3461 32.7798 20.6032 32.5223C20.7323 32.3935 20.8049 32.185 20.806 31.9432C20.8078 31.5093 20.9328 31.2568 21.0957 31.3575C21.1748 31.4064 21.1772 31.4841 21.1033 31.6221C21.0458 31.7296 21.036 31.8174 21.081 31.8174C21.156 31.817 21.4078 31.3051 21.4525 31.0621C21.5155 30.7216 21.8542 30.1824 22.0658 30.0859C22.3329 29.964 22.3935 29.7555 22.1888 29.6616C22.1196 29.6298 22.169 29.6303 22.2986 29.6628C22.4705 29.706 22.5762 29.6613 22.6917 29.4963C22.8427 29.281 22.856 29.2792 22.984 29.4541C23.1084 29.6246 23.1262 29.6146 23.2298 29.3176C23.343 28.9927 23.6234 28.8726 23.6234 29.1488C23.6235 29.4308 23.8021 29.3011 23.8666 28.9724C23.9182 28.7085 24.0129 28.6095 24.3559 28.4614C24.5898 28.3606 24.9016 28.2133 25.0484 28.1342C25.3594 27.9671 25.637 27.9468 25.637 28.0912C25.637 28.1467 25.7329 28.0963 25.85 27.9789C26.0183 27.8107 26.145 27.7768 26.4541 27.8182C26.6719 27.8476 26.8205 27.8308 26.7895 27.7806C26.759 27.7312 26.8039 27.7178 26.8894 27.7506C26.975 27.7833 27.0204 27.8501 26.9903 27.899C26.9601 27.9482 27.0027 27.9623 27.0851 27.9306C27.1673 27.8991 27.2128 27.815 27.1855 27.7442C27.1499 27.6508 27.2703 27.6124 27.6198 27.6057C27.8858 27.6005 28.3244 27.5669 28.5942 27.5304C28.9554 27.482 29.1076 27.5009 29.1714 27.6019C29.2289 27.6926 29.2588 27.6984 29.2596 27.6194C29.2606 27.5395 29.3866 27.5164 29.6388 27.5502C30.3494 27.6452 30.4692 27.6908 30.4708 27.8665C30.4721 27.9873 30.4962 28.0032 30.5501 27.9184C30.6102 27.8239 30.6927 27.8293 30.9115 27.943C31.0673 28.0239 31.2338 28.0659 31.2818 28.0366C31.3297 28.0069 31.5602 28.0751 31.7939 28.1881C32.0276 28.3011 32.2668 28.3935 32.3256 28.3938C32.3845 28.3942 32.6504 28.5867 32.9162 28.8216C33.1821 29.0569 33.5332 29.3547 33.6964 29.4836C33.8596 29.6124 33.9927 29.7822 33.9928 29.8611C33.9928 29.94 34.0723 30.0062 34.1691 30.0078C34.3693 30.0116 34.899 30.4441 34.899 30.6042C34.8991 30.6622 34.9391 30.7094 34.988 30.7095C35.0366 30.7095 35.1004 30.8002 35.1295 30.9111C35.161 31.0316 35.2669 31.1127 35.3931 31.1127C35.5088 31.1127 35.6037 31.1747 35.6038 31.251C35.6038 31.3275 35.6737 31.4481 35.7593 31.5192C35.8447 31.59 35.8948 31.7009 35.8701 31.7652C35.8454 31.8295 35.9099 31.9351 36.0135 31.9996C36.2685 32.159 36.5384 32.704 36.4775 32.937C36.432 33.1116 36.5225 33.1764 36.7522 33.1332C36.8792 33.1093 36.9696 33.2714 37.2819 34.083C37.5832 34.866 37.8963 35.4428 38.0204 35.4428C38.0652 35.4429 38.0798 35.5266 38.053 35.6292C38.0262 35.7317 38.0662 35.879 38.1417 35.9564C38.3855 36.2063 38.7247 36.8208 38.7247 37.0124C38.7248 37.283 39.0344 38.0577 39.3003 38.4528C39.4265 38.6404 39.53 38.875 39.53 38.9742C39.53 39.0734 39.5896 39.2143 39.6625 39.2874C39.8954 39.5217 40.3376 40.3418 40.2681 40.4111C40.2315 40.448 40.2752 40.4779 40.3654 40.4779C40.5369 40.4779 40.7759 40.8227 40.7837 41.082C40.7864 41.165 40.8452 41.2387 40.9144 41.2457C40.9836 41.2527 41.0829 41.2641 41.135 41.2711C41.1873 41.2779 41.312 41.4225 41.412 41.5917C41.5798 41.8755 42.9531 42.7046 42.9531 42.5221C42.9532 42.4835 43.0073 42.5062 43.0738 42.5727C43.1402 42.6391 43.2911 42.6935 43.4093 42.6935C43.5274 42.6935 43.6582 42.7273 43.6998 42.769C43.7412 42.8106 43.8165 42.8502 43.8673 42.8572C43.918 42.864 43.9939 42.8825 44.0353 42.8981C44.3939 43.0332 46.6153 43.0365 46.8659 42.9022C46.983 42.8395 47.2358 42.7824 47.4278 42.7751C47.6199 42.7678 47.7545 42.7253 47.727 42.6805C47.6994 42.636 47.9665 42.4069 48.3204 42.1718C48.6743 41.9368 49.0615 41.5954 49.1809 41.4132C49.3004 41.2313 49.4654 41.0822 49.5481 41.0822C49.6306 41.0822 49.6981 41.0192 49.6981 40.9419C49.6981 40.8646 49.8108 40.6945 49.9482 40.5641C50.0889 40.4303 50.1987 40.2117 50.1998 40.0625C50.2008 39.917 50.269 39.7418 50.3515 39.6733C50.4337 39.6049 50.4784 39.512 50.4504 39.4666C50.4225 39.4214 50.4457 39.3556 50.502 39.3207C50.5581 39.2861 50.6041 39.1496 50.6041 39.0177C50.6041 38.8858 50.6434 38.7535 50.6915 38.7238C50.7811 38.6684 50.9111 38.0754 50.966 37.4718C50.9829 37.286 51.0783 37.0702 51.178 36.9921C51.313 36.8861 51.3209 36.8566 51.2082 36.8764C51.1075 36.8941 51.0679 36.8358 51.0895 36.7017C51.1072 36.5909 51.1302 36.4097 51.1406 36.2988C51.1508 36.1882 51.1975 36.0374 51.2446 35.964C51.3575 35.7875 51.4432 34.0576 51.3493 33.8458C51.3089 33.7549 51.2625 33.227 51.2456 32.6733C51.2289 32.1193 51.2005 31.1901 51.1825 30.6083C51.1646 30.0262 51.1176 29.4983 51.0786 29.435C50.9425 29.2151 50.9037 28.4857 51.0166 28.2743C51.1085 28.103 51.0989 28.0441 50.9681 27.9707C50.777 27.864 50.7488 27.4878 50.9315 27.4854C51.024 27.4844 51.0211 27.4609 50.9208 27.3975C50.8375 27.3446 50.8096 27.2306 50.8491 27.1051C50.885 26.9921 50.8652 26.8693 50.8054 26.8323C50.7385 26.7909 50.7057 26.4641 50.7205 25.9906C50.734 25.5649 50.7103 25.1608 50.6682 25.0922C50.6258 25.0237 50.6199 24.8774 50.6547 24.7673C50.6898 24.657 50.6727 24.5666 50.6168 24.5664C50.5609 24.5664 50.5169 24.3369 50.5192 24.056C50.5213 23.7753 50.4976 23.5203 50.4666 23.489C50.4354 23.4578 50.4569 23.3448 50.5141 23.2379C50.5818 23.1114 50.5839 23.0015 50.5205 22.9237C50.4005 22.7771 50.4008 21.3571 50.521 21.2829C50.5686 21.2535 50.5775 21.1805 50.5408 21.1212C50.455 20.982 50.4803 19.1471 50.5698 19.0018C50.6073 18.9414 50.6364 18.7301 50.6346 18.532C50.6331 18.334 50.6536 18.1334 50.6806 18.0861C50.7267 18.0048 50.8069 17.3669 50.8405 16.8122C50.8491 16.6738 50.9086 16.5606 50.9731 16.5605C51.0379 16.5605 51.1246 16.5266 51.1663 16.485C51.2077 16.4433 51.1882 16.4095 51.1226 16.4095C51.049 16.4094 51.1001 16.2186 51.257 15.9092C51.3962 15.6343 51.5104 15.3137 51.5104 15.1973C51.5104 15.0316 51.554 14.9999 51.7122 15.0501C51.8539 15.0951 51.934 15.0594 51.9816 14.9309C52.0685 14.6956 52.2117 14.6002 52.481 14.5981C52.5999 14.5974 52.8354 14.4673 53.0043 14.3096C53.3573 13.9801 54.5951 13.7746 54.7507 14.0195C54.8056 14.1061 54.8297 14.1083 54.831 14.0274C54.8332 13.8905 55.4175 13.6668 55.5536 13.7508C55.6054 13.7828 55.7247 13.7764 55.8189 13.7368C55.9131 13.697 56.1034 13.6476 56.2418 13.6268C56.5098 13.5864 56.6106 13.5831 57.3997 13.5889C57.6766 13.591 58.0113 13.5709 58.1436 13.5441C58.6031 13.4509 61.2297 13.2871 61.9105 13.3092C62.4187 13.3259 62.6223 13.2935 62.6986 13.1839C62.7761 13.072 62.8136 13.0665 62.8523 13.1618C62.9087 13.3007 63.289 13.3374 63.2892 13.2037C63.2892 13.1577 63.7082 13.1122 64.2204 13.1028C65.4662 13.0802 67.5151 12.9325 67.786 12.8458C67.9057 12.8073 68.0287 12.816 68.059 12.8648C68.1292 12.9786 69.5776 12.925 69.7999 12.8005C69.8936 12.7483 70.092 12.7428 70.251 12.7883C70.4071 12.8331 70.5578 12.8329 70.5857 12.7878C70.6673 12.6561 72.2729 12.7603 72.3611 12.903C72.4202 12.9985 72.4814 12.9888 72.6221 12.8613ZM48.5267 60.7199C48.4515 60.7199 48.4205 60.7842 48.4535 60.8709C48.4855 60.9539 48.5444 61.0218 48.5847 61.0219C48.6248 61.0219 48.6579 60.9539 48.6579 60.8709C48.6579 60.7879 48.5988 60.7199 48.5267 60.7199ZM25.6403 42.0895C25.5935 42.0895 25.5794 42.1832 25.6093 42.2974C25.6449 42.433 25.6981 42.4712 25.7623 42.407C25.8667 42.3026 25.7847 42.0895 25.6403 42.0895ZM21.2726 37.7895C21.0236 37.5267 20.8045 37.489 20.8045 37.7087C20.8045 37.7917 20.867 37.8597 20.943 37.8597C21.0192 37.8597 21.1121 38.007 21.1493 38.1872L21.2172 38.5143L21.3532 38.2662C21.4744 38.045 21.4657 37.9934 21.2726 37.7895ZM80.4483 36.3491C80.3686 36.3491 80.3031 36.3946 80.3031 36.4498C80.3032 36.5052 80.3964 36.5504 80.5103 36.5505C80.6242 36.5505 80.6896 36.5052 80.6556 36.4498C80.6213 36.3946 80.5281 36.3492 80.4483 36.3491ZM22.1717 30.2308C22.1395 30.1989 22.1133 30.2255 22.1133 30.29C22.1133 30.3545 22.0503 30.4077 21.973 30.4077C21.8099 30.4077 21.6792 30.6784 21.8045 30.756C21.9055 30.8185 22.2566 30.3159 22.1717 30.2308ZM29.6865 27.7717C29.6194 27.7045 29.5616 27.7103 29.5127 27.7892C29.4726 27.854 29.4853 27.9526 29.5407 28.0081C29.6075 28.0753 29.6656 28.0694 29.7142 27.9906C29.7546 27.9255 29.742 27.8271 29.6865 27.7717ZM80.2986 21.6907C80.1599 21.5236 80.1578 21.5231 80.0683 21.6126C79.9483 21.7329 79.997 21.8045 80.2101 21.8203C80.3813 21.8333 80.3974 21.8099 80.2986 21.6907Z" fill="#3981F6"/>
<path d="M51.7053 60.2163C51.8539 60.2163 51.8901 60.2623 51.8436 60.3924C51.8087 60.4895 51.8171 60.535 51.8624 60.4941C51.9076 60.453 51.9941 60.4577 52.0548 60.5045C52.2755 60.6758 52.6419 60.7193 52.5084 60.5584C52.4421 60.4783 52.4169 60.3836 52.4525 60.3482C52.4879 60.3126 52.5171 60.3412 52.5171 60.4118C52.5171 60.4843 52.5827 60.5147 52.668 60.4819C52.8829 60.3995 52.8599 60.6916 52.6429 60.8035C52.5458 60.8532 52.4027 60.8713 52.3244 60.8434C52.2461 60.8156 52.1302 60.864 52.0665 60.951C51.922 61.1485 51.4098 61.291 51.4098 61.1335C51.4098 61.0721 51.5116 61.0182 51.6362 61.014C51.7607 61.0096 51.806 60.9831 51.7368 60.9553C51.6676 60.9274 51.6108 60.8441 51.6108 60.7702C51.6108 60.6963 51.5574 60.6182 51.4921 60.5963C51.304 60.5335 51.4818 60.2163 51.7053 60.2163Z" fill="#3981F6"/>
<path d="M53.1209 60.6192C53.1763 60.6192 53.2218 60.6872 53.2218 60.7702C53.2218 60.8532 53.1763 60.9212 53.1209 60.9212C53.0655 60.9211 53.0203 60.8532 53.0203 60.7702C53.0203 60.6872 53.0655 60.6193 53.1209 60.6192Z" fill="#3981F6"/>
<path d="M84.0629 19.9091C83.9851 19.7828 84.3063 19.8246 84.4508 19.9592C84.5252 20.0284 85.0154 20.3057 85.5403 20.5754C86.0652 20.8454 86.5702 21.1516 86.6626 21.2562C86.755 21.3608 86.9692 21.4741 87.1386 21.5079C87.308 21.542 87.4985 21.6322 87.562 21.7087C87.6252 21.785 87.734 21.8475 87.8034 21.8475C87.8729 21.8475 87.9886 21.9182 88.0601 22.0044C88.1317 22.0908 88.34 22.2238 88.5229 22.3003C88.7061 22.3768 89.0115 22.5637 89.2015 22.7152C89.3917 22.8669 89.6182 23.0016 89.7057 23.0144C89.9779 23.0545 90.5718 23.4682 90.5718 23.6182C90.5719 23.7826 90.7318 23.8092 90.8239 23.6601C90.895 23.5453 91.1655 23.6658 91.5119 23.9665C91.6316 24.0706 91.8204 24.2246 91.9312 24.3087C92.0978 24.4357 92.1078 24.4782 91.9902 24.5555C91.87 24.6346 91.8736 24.6748 92.0154 24.8163C92.2085 25.0095 92.2332 25.171 92.0695 25.171C91.997 25.1711 91.9784 25.2811 92.0177 25.4771C92.0871 25.8253 91.9135 26.1779 91.672 26.178C91.4185 26.178 91.3649 26.2974 91.5551 26.4383C91.7127 26.5551 91.6938 26.5827 91.3581 26.724C91.1539 26.8102 90.8322 27.0395 90.6432 27.2342C90.4546 27.4286 90.2595 27.5878 90.2094 27.5879C90.1597 27.5879 89.9408 27.7465 89.7232 27.9402C89.3599 28.2635 89.2851 28.305 89.0993 28.2862C89.0646 28.2831 88.9848 28.385 88.9219 28.513C88.8589 28.641 88.6721 28.814 88.5069 28.8979C88.3414 28.9814 87.889 29.3551 87.5013 29.7277C87.1138 30.1004 86.7175 30.4058 86.6206 30.4064C86.5236 30.4069 86.4446 30.4745 86.4445 30.5564C86.4445 30.6387 86.3353 30.7331 86.2021 30.7667C86.0688 30.8 85.8573 30.9369 85.7317 31.0707C85.3991 31.4247 85.2003 31.3929 85.4145 31.0196C85.5073 30.8581 85.6182 30.7475 85.6613 30.7738C85.7849 30.8503 85.7523 30.662 85.6186 30.5285C85.4312 30.3408 85.3162 30.3855 85.3898 30.6174C85.4546 30.8218 85.4494 30.8229 85.1952 30.6563C84.9899 30.5218 84.933 30.5143 84.9278 30.6223C84.9244 30.698 84.8784 30.6528 84.8261 30.5218C84.7522 30.3378 84.6739 30.2947 84.48 30.3317C84.3422 30.3579 84.2295 30.3443 84.2294 30.3012C84.2294 30.258 84.202 30.1509 84.1684 30.0632C84.1247 29.9492 84.1674 29.9038 84.3194 29.9038C84.4362 29.9038 84.5313 29.8601 84.5313 29.8065C84.5313 29.7529 84.4634 29.735 84.3804 29.7671C84.2974 29.7988 84.2294 29.7929 84.2294 29.7538C84.2297 29.5937 85.0176 28.5946 85.1438 28.5946C85.1838 28.5944 85.3698 28.4474 85.5573 28.2674C86.6065 27.2611 87.2703 26.6817 87.3742 26.6813C87.4476 26.6813 87.4556 26.6466 87.3955 26.5883C87.2497 26.4465 86.3699 26.3982 85.8724 26.5044C85.5446 26.5741 85.3895 26.5653 85.275 26.4703C85.1664 26.3802 85.0999 26.3747 85.0523 26.4515C85.0148 26.5116 84.5086 26.6115 83.9275 26.6734C80.6198 27.0256 79.8186 27.1711 77.9907 27.7501C77.5738 27.882 77.0515 28.0439 76.83 28.1098C76.6086 28.1756 76.3141 28.3005 76.1756 28.3874C76.0371 28.4741 75.7654 28.6214 75.5715 28.7143C75.3776 28.8073 74.9314 29.0225 74.5798 29.1923C74.2283 29.362 73.9048 29.4784 73.8606 29.4511C73.8166 29.4238 73.7541 29.47 73.7221 29.5535C73.69 29.6373 73.5549 29.7468 73.4217 29.7976C72.8278 30.0235 70.0082 32.3512 69.5317 33.0086C69.3707 33.2309 69.1802 33.4503 69.1081 33.4962C68.966 33.5868 68.7775 33.8628 68.6346 34.1895C68.4806 34.5414 68.0119 35.0399 67.8358 35.0386C67.7016 35.0373 67.696 35.0194 67.8074 34.9489C68.023 34.8122 67.8468 34.6155 67.618 34.7379C67.3012 34.9073 67.1779 33.9713 67.4836 33.7172C67.5578 33.6557 67.618 33.527 67.618 33.4312C67.6182 33.2272 68.0593 32.3691 68.2748 32.1534C68.3565 32.0714 68.4237 31.9578 68.4237 31.901C68.424 31.8437 68.8202 31.3913 69.3045 30.8948C69.7891 30.3981 70.3213 29.8457 70.4873 29.6672C70.8582 29.2691 71.7411 28.5387 72.0623 28.3645C72.1926 28.2937 72.4516 28.0898 72.6374 27.9115C72.8232 27.7334 73.0789 27.5879 73.2057 27.5879C73.3321 27.5878 73.4638 27.5149 73.4979 27.4262C73.5422 27.3109 73.6322 27.2825 73.8108 27.3273C73.9696 27.3673 74.0613 27.3475 74.0614 27.2737C74.0614 27.1151 74.3723 26.8899 74.5963 26.886C74.6968 26.8841 74.8935 26.747 75.0332 26.5806C75.173 26.4146 75.3763 26.2786 75.4848 26.2786C75.5933 26.2786 75.8115 26.2116 75.9692 26.1302C76.4784 25.8667 77.9309 25.3674 78.0524 25.414C78.1173 25.439 78.2494 25.3715 78.3462 25.2645C78.5806 25.0054 78.7981 25.0187 78.8723 25.2966C78.9327 25.523 78.9327 25.5231 78.9923 25.2747C79.0555 25.0118 79.4317 24.8584 80.0764 24.8318C80.2565 24.8246 80.404 24.7652 80.404 24.7004C80.4042 24.569 80.7537 24.4776 81.3604 24.4503C81.5818 24.4401 81.8328 24.3978 81.9187 24.3557C82.0043 24.3138 82.287 24.2542 82.5467 24.2235C82.8067 24.193 83.1217 24.1451 83.2469 24.117C83.752 24.0035 84.8524 23.9745 85.0991 24.0682C85.3038 24.146 85.387 24.1338 85.476 24.0117C85.5389 23.9258 85.6805 23.8641 85.7909 23.8744C85.9009 23.8849 86.1483 23.8866 86.3401 23.8778L86.689 23.8617L86.3485 23.5849C86.1611 23.4326 85.8905 23.1911 85.7477 23.0487C85.6048 22.9064 85.414 22.7479 85.3238 22.6964C84.8142 22.4058 83.8542 21.4074 83.8909 21.2061C83.9122 21.088 83.9026 21.0482 83.8698 21.1174C83.837 21.1866 83.7458 21.2432 83.6675 21.2432C83.4991 21.2432 83.48 20.9108 83.6324 20.626C83.711 20.4789 83.7072 20.3852 83.6182 20.2777C83.468 20.0971 83.5362 20.0189 83.8609 19.9993C83.9975 19.9913 84.0883 19.9505 84.0629 19.9091Z" fill="#3981F6"/>
<path d="M79.9003 22.5522C79.9557 22.5522 80.0005 22.6091 79.9994 22.6783C79.9961 22.973 79.8236 23.0977 79.5811 22.9809L79.3468 22.8682L79.5732 22.8614C79.7044 22.8575 79.7999 22.791 79.7999 22.7035C79.8 22.6205 79.8452 22.5523 79.9003 22.5522Z" fill="#3981F6"/>
</svg>
