<svg xmlns="http://www.w3.org/2000/svg" viewBox="0 0 512 512">
  <defs>
    <linearGradient id="grad1" x1="0%" y1="0%" x2="100%" y2="100%">
      <stop offset="0%" style="stop-color:#6366f1;stop-opacity:1" />
      <stop offset="100%" style="stop-color:#a855f7;stop-opacity:1" />
    </linearGradient>
  </defs>

  <!-- Button Background -->
  <rect x="64" y="64" width="384" height="384" rx="64" fill="url(#grad1)" />

  <!-- Brush Icon -->
  <path d="M363.3 115.3c-15.6-15.6-40.9-15.6-56.6 0l-144 144c-6.2 6.2-10.9 14.1-13.4 22.7l-16.7 58.4c-2.4 8.4 0 17.5 6.2 23.7 6.2 6.2 15.3 8.6 23.7 6.2l58.4-16.7c8.6-2.5 16.5-7.2 22.7-13.4l144-144c15.6-15.6 15.6-40.9 0-56.6l-24.3-24.3zM256 320L192 256" fill="white" stroke="white" stroke-width="20" stroke-linecap="round" stroke-linejoin="round"/>
  <path d="M168 368c-10 10-25 10-35 0s-10-25 0-35" fill="none" stroke="white" stroke-width="20" stroke-linecap="round"/>
</svg>
